<mxfile host="app.diagrams.net" modified="2022-04-25T16:11:02.741Z" agent="5.0 (X11)" etag="cNNF5CyVhG4zkexaoa2h" version="17.4.6" type="github">
  <diagram id="N2oWn4F4IZW43acvEQuO" name="Page-1">
    <mxGraphModel dx="953" dy="1044" grid="1" gridSize="10" guides="1" tooltips="1" connect="1" arrows="1" fold="1" page="1" pageScale="1" pageWidth="850" pageHeight="1100" math="0" shadow="0">
      <root>
        <mxCell id="0" />
        <mxCell id="1" parent="0" />
        <mxCell id="0YI-NeENXeWSQUGV5ouM-3" value="" style="edgeStyle=orthogonalEdgeStyle;rounded=0;orthogonalLoop=1;jettySize=auto;html=1;" edge="1" parent="1" source="0YI-NeENXeWSQUGV5ouM-1" target="0YI-NeENXeWSQUGV5ouM-2">
          <mxGeometry relative="1" as="geometry" />
        </mxCell>
        <mxCell id="0YI-NeENXeWSQUGV5ouM-1" value="" style="whiteSpace=wrap;html=1;aspect=fixed;direction=south;rotation=0;" vertex="1" parent="1">
          <mxGeometry x="220" y="180" width="90" height="90" as="geometry" />
        </mxCell>
        <mxCell id="0YI-NeENXeWSQUGV5ouM-5" value="" style="edgeStyle=orthogonalEdgeStyle;rounded=0;orthogonalLoop=1;jettySize=auto;html=1;" edge="1" parent="1" source="0YI-NeENXeWSQUGV5ouM-2" target="0YI-NeENXeWSQUGV5ouM-4">
          <mxGeometry relative="1" as="geometry" />
        </mxCell>
        <mxCell id="0YI-NeENXeWSQUGV5ouM-2" value="" style="rhombus;whiteSpace=wrap;html=1;" vertex="1" parent="1">
          <mxGeometry x="395" y="185" width="80" height="80" as="geometry" />
        </mxCell>
        <mxCell id="0YI-NeENXeWSQUGV5ouM-7" value="" style="edgeStyle=orthogonalEdgeStyle;rounded=0;orthogonalLoop=1;jettySize=auto;html=1;" edge="1" parent="1" source="0YI-NeENXeWSQUGV5ouM-4" target="0YI-NeENXeWSQUGV5ouM-6">
          <mxGeometry relative="1" as="geometry" />
        </mxCell>
        <mxCell id="0YI-NeENXeWSQUGV5ouM-4" value="" style="rounded=1;whiteSpace=wrap;html=1;" vertex="1" parent="1">
          <mxGeometry x="375" y="355" width="120" height="60" as="geometry" />
        </mxCell>
        <mxCell id="0YI-NeENXeWSQUGV5ouM-9" value="" style="edgeStyle=orthogonalEdgeStyle;rounded=0;orthogonalLoop=1;jettySize=auto;html=1;" edge="1" parent="1" source="0YI-NeENXeWSQUGV5ouM-6" target="0YI-NeENXeWSQUGV5ouM-8">
          <mxGeometry relative="1" as="geometry" />
        </mxCell>
        <mxCell id="0YI-NeENXeWSQUGV5ouM-6" value="" style="rhombus;whiteSpace=wrap;html=1;rounded=1;" vertex="1" parent="1">
          <mxGeometry x="595" y="345" width="80" height="80" as="geometry" />
        </mxCell>
        <mxCell id="0YI-NeENXeWSQUGV5ouM-11" value="" style="edgeStyle=orthogonalEdgeStyle;rounded=0;orthogonalLoop=1;jettySize=auto;html=1;" edge="1" parent="1" source="0YI-NeENXeWSQUGV5ouM-8" target="0YI-NeENXeWSQUGV5ouM-10">
          <mxGeometry relative="1" as="geometry" />
        </mxCell>
        <mxCell id="0YI-NeENXeWSQUGV5ouM-8" value="" style="rhombus;whiteSpace=wrap;html=1;rounded=1;" vertex="1" parent="1">
          <mxGeometry x="595" y="185" width="80" height="80" as="geometry" />
        </mxCell>
        <mxCell id="0YI-NeENXeWSQUGV5ouM-10" value="" style="shape=waypoint;sketch=0;size=6;pointerEvents=1;points=[];fillColor=default;resizable=0;rotatable=0;perimeter=centerPerimeter;snapToPoint=1;rounded=1;" vertex="1" parent="1">
          <mxGeometry x="455" y="205" width="40" height="40" as="geometry" />
        </mxCell>
      </root>
    </mxGraphModel>
  </diagram>
</mxfile>
